<svg xmlns="http://www.w3.org/2000/svg" xmlns:xlink="http://www.w3.org/1999/xlink" xmlns:lucid="lucid" width="1760" height="1360"><g transform="translate(0 0)" lucid:page-tab-id="0_0"><path d="M0 0h1760v1360H0z" fill="#fff"/><path d="M180 60h460v320H180z" stroke="#000" stroke-width="2" fill="#fff"/><path d="M180 98h460m-460 72h460" stroke="#000" stroke-width="2" fill="none"/><use xlink:href="#a" transform="matrix(1,0,0,1,188,60) translate(176.575 22.6)"/><use xlink:href="#b" transform="matrix(1,0,0,1,192,105.6) translate(0 32.1)"/><use xlink:href="#c" transform="matrix(1,0,0,1,192,178.07847619047618) translate(0 79)"/><use xlink:href="#d" transform="matrix(1,0,0,1,192,178.07847619047618) translate(172.25 79)"/><use xlink:href="#e" transform="matrix(1,0,0,1,192,178.07847619047618) translate(0 100.6)"/><use xlink:href="#f" transform="matrix(1,0,0,1,192,178.07847619047618) translate(117.30000000000001 100.6)"/><use xlink:href="#g" transform="matrix(1,0,0,1,192,178.07847619047618) translate(161.25 100.6)"/><use xlink:href="#d" transform="matrix(1,0,0,1,192,178.07847619047618) translate(239.2 100.6)"/><use xlink:href="#h" transform="matrix(1,0,0,1,192,178.07847619047618) translate(0 122.2)"/><use xlink:href="#i" transform="matrix(1,0,0,1,192,178.07847619047618) translate(179.3 122.2)"/><use xlink:href="#g" transform="matrix(1,0,0,1,192,178.07847619047618) translate(235.25 122.2)"/><use xlink:href="#j" transform="matrix(1,0,0,1,192,178.07847619047618) translate(313.2 122.2)"/><path d="M880 140h160v120H880z" stroke="#000" stroke-width="2" fill="#fff"/><path d="M896 140v120m128-120v120" stroke="#000" stroke-width="2" fill="none"/><use xlink:href="#k" transform="matrix(1,0,0,1,900,140) translate(28.025 52.8)"/><use xlink:href="#l" transform="matrix(1,0,0,1,900,140) translate(17.074999999999996 74.4)"/><path d="M641 220h219.76" stroke="#000" stroke-width="2" fill="none"/><path d="M641 221h-1v-2h1zM875.76 220l-14.26 4.64v-9.28z"/><path d="M879 220l-18.5 6v-12zm-16.5 3.26l10.03-3.26-10.03-3.26z"/><path d="M640 220h240v60H640z" stroke="#000" stroke-opacity="0" stroke-width="2" fill="#fff" fill-opacity="0"/><use xlink:href="#m" transform="matrix(1,0,0,1,645,225) translate(69.1 28.6)"/><path d="M280 460h160v120H280z" stroke="#000" stroke-width="2" fill="#fff"/><path d="M296 460v120m128-120v120" stroke="#000" stroke-width="2" fill="none"/><use xlink:href="#n" transform="matrix(1,0,0,1,300,460) translate(10.049999999999997 63.6)"/><path d="M500 460h160v120H500z" stroke="#000" stroke-width="2" fill="#fff"/><path d="M516 460v120m128-120v120" stroke="#000" stroke-width="2" fill="none"/><use xlink:href="#o" transform="matrix(1,0,0,1,520,460) translate(3.049999999999997 63.6)"/><path d="M362.67 399.24V459" stroke="#000" stroke-width="2" fill="none"/><path d="M367.3 398.5h-9.27l4.64-14.26z"/><path d="M368.68 399.5h-12.03l6.02-18.5zm-9.27-2h6.53l-3.26-10.03zM363.67 460h-2v-1h2z"/><path d="M570.67 381V440.76" stroke="#000" stroke-width="2" fill="none"/><path d="M571.67 381h-2v-1h2zM570.67 455.76l-4.64-14.26h9.27z"/><path d="M570.67 459l-6.02-18.5h12.03zm-3.26-16.5l3.27 10.03 3.26-10.03z"/><path d="M360 599.24V720" stroke="#000" stroke-width="2" fill="none"/><path d="M364.64 598.5h-9.28l4.64-14.26z"/><path d="M366 599.5h-12l6-18.5zm-9.26-2h6.52L360 587.47z"/><path d="M580 581v120.76" stroke="#000" stroke-width="2" fill="none"/><path d="M581 581h-2v-1h2z"/><path d="M580 716.76l-4.64-14.26h9.28z" stroke="#000" stroke-width="2"/><path d="M400 620h120v60H400z" stroke="#000" stroke-opacity="0" stroke-width="2" fill="#fff" fill-opacity="0"/><use xlink:href="#p" transform="matrix(1,0,0,1,405,625) translate(36 28.6)"/><path d="M420 390h80v60h-80z" stroke="#000" stroke-opacity="0" stroke-width="2" fill="#fff" fill-opacity="0"/><use xlink:href="#p" transform="matrix(1,0,0,1,425,395) translate(16 28.6)"/><path d="M200 720h460v320H200z" stroke="#000" stroke-width="2" fill="#fff"/><path d="M200 758h460M200 899h460" stroke="#000" stroke-width="2" fill="none"/><use xlink:href="#q" transform="matrix(1,0,0,1,208,720) translate(82.725 22.6)"/><use xlink:href="#r" transform="matrix(1,0,0,1,208,720) translate(270.525 22.6)"/><use xlink:href="#s" transform="matrix(1,0,0,1,208,720) translate(289.475 22.6)"/><path d="M320 820h160v160H320z" stroke="#000" stroke-width="2" fill="#fff"/><g><use xlink:href="#t" transform="matrix(1,0,0,1,325,825) translate(59.025 78.60000000000001)"/></g><path d="M120 288c0 6.63-26.86 12-60 12s-60-5.37-60-12v-96c0-6.63 26.86-12 60-12s60 5.37 60 12z" stroke="#000" stroke-width="2" fill="#fff"/><path d="M120 192c0 6.63-26.86 12-60 12s-60-5.37-60-12" stroke="#000" stroke-width="2" fill="none"/><g><use xlink:href="#u" transform="matrix(1,0,0,1,5,209) translate(16.525 46.6)"/></g><path d="M179 238.63h-39.76" stroke="#000" stroke-width="2" fill="none"/><path d="M180 239.63h-1v-2h1zM138.5 243.26l-14.26-4.63L138.5 234z"/><path d="M139.5 244.64l-18.5-6 18.5-6.02zm-12.03-6l10.03 3.25v-6.53z"/><path d="M880 540h240v60H880z" stroke="#000" stroke-opacity="0" stroke-width="2" fill="#fff" fill-opacity="0"/><g><use xlink:href="#v" transform="matrix(1,0,0,1,885,545) translate(89 28.6)"/></g><defs><path d="M212-179c-10-28-35-45-73-45-59 0-87 40-87 99 0 60 29 101 89 101 43 0 62-24 78-52l27 14C228-24 195 4 139 4 59 4 22-46 18-125c-6-104 99-153 187-111 19 9 31 26 39 46" id="w"/><path d="M106-169C34-169 62-67 57 0H25v-261h32l-1 103c12-21 28-36 61-36 89 0 53 116 60 194h-32v-121c2-32-8-49-39-48" id="x"/><path d="M141-36C126-15 110 5 73 4 37 3 15-17 15-53c-1-64 63-63 125-63 3-35-9-54-41-54-24 1-41 7-42 31l-33-3c5-37 33-52 76-52 45 0 72 20 72 64v82c-1 20 7 32 28 27v20c-31 9-61-2-59-35zM48-53c0 20 12 33 32 33 41-3 63-29 60-74-43 2-92-5-92 41" id="y"/><path d="M59-47c-2 24 18 29 38 22v24C64 9 27 4 27-40v-127H5v-23h24l9-43h21v43h35v23H59v120" id="z"/><path d="M185-189c-5-48-123-54-124 2 14 75 158 14 163 119 3 78-121 87-175 55-17-10-28-26-33-46l33-7c5 56 141 63 141-1 0-78-155-14-162-118-5-82 145-84 179-34 5 7 8 16 11 25" id="A"/><path d="M100-194c63 0 86 42 84 106H49c0 40 14 67 53 68 26 1 43-12 49-29l28 8c-11 28-37 45-77 45C44 4 14-33 15-96c1-61 26-98 85-98zm52 81c6-60-76-77-97-28-3 7-6 17-6 28h103" id="B"/><path d="M114-163C36-179 61-72 57 0H25l-1-190h30c1 12-1 29 2 39 6-27 23-49 58-41v29" id="C"/><path d="M108 0H70L1-190h34L89-25l56-165h34" id="D"/><g id="a"><use transform="matrix(0.05,0,0,0.05,0,0)" xlink:href="#w"/><use transform="matrix(0.05,0,0,0.05,12.950000000000001,0)" xlink:href="#x"/><use transform="matrix(0.05,0,0,0.05,22.950000000000003,0)" xlink:href="#y"/><use transform="matrix(0.05,0,0,0.05,32.95,0)" xlink:href="#z"/><use transform="matrix(0.05,0,0,0.05,37.95,0)" xlink:href="#A"/><use transform="matrix(0.05,0,0,0.05,49.95,0)" xlink:href="#B"/><use transform="matrix(0.05,0,0,0.05,59.95,0)" xlink:href="#C"/><use transform="matrix(0.05,0,0,0.05,65.9,0)" xlink:href="#D"/><use transform="matrix(0.05,0,0,0.05,74.9,0)" xlink:href="#B"/><use transform="matrix(0.05,0,0,0.05,84.9,0)" xlink:href="#C"/></g><path d="M16-82v-28h88v28H16" id="E"/><path d="M100-194c62-1 85 37 85 99 1 63-27 99-86 99S16-35 15-95c0-66 28-99 85-99zM99-20c44 1 53-31 53-75 0-43-8-75-51-75s-53 32-53 75 10 74 51 75" id="F"/><path d="M96-169c-40 0-48 33-48 73s9 75 48 75c24 0 41-14 43-38l32 2c-6 37-31 61-74 61-59 0-76-41-82-99-10-93 101-131 147-64 4 7 5 14 7 22l-32 3c-4-21-16-35-41-35" id="G"/><path d="M143 0L79-87 56-68V0H24v-261h32v163l83-92h37l-77 82L181 0h-38" id="H"/><path d="M87 75C49 33 22-17 22-94c0-76 28-126 65-167h31c-38 41-64 92-64 168S80 34 118 75H87" id="I"/><path d="M103-251c84 0 111 97 45 133-19 10-37 24-39 52H78c0-63 77-55 77-114 0-30-21-42-52-43-32 0-53 17-56 46l-32-2c7-45 34-72 88-72zM77 0v-35h34V0H77" id="J"/><path d="M33-261c38 41 65 92 65 168S71 34 33 75H2C39 34 66-17 66-93S39-220 2-261h31" id="K"/><g id="b"><use transform="matrix(0.05,0,0,0.05,0,0)" xlink:href="#E"/><use transform="matrix(0.05,0,0,0.05,5.95,0)" xlink:href="#A"/><use transform="matrix(0.05,0,0,0.05,17.95,0)" xlink:href="#B"/><use transform="matrix(0.05,0,0,0.05,27.950000000000003,0)" xlink:href="#C"/><use transform="matrix(0.05,0,0,0.05,33.9,0)" xlink:href="#D"/><use transform="matrix(0.05,0,0,0.05,42.9,0)" xlink:href="#B"/><use transform="matrix(0.05,0,0,0.05,52.900000000000006,0)" xlink:href="#C"/><use transform="matrix(0.05,0,0,0.05,58.85,0)" xlink:href="#A"/><use transform="matrix(0.05,0,0,0.05,70.85,0)" xlink:href="#F"/><use transform="matrix(0.05,0,0,0.05,80.85,0)" xlink:href="#G"/><use transform="matrix(0.05,0,0,0.05,89.85,0)" xlink:href="#H"/><use transform="matrix(0.05,0,0,0.05,98.85,0)" xlink:href="#B"/><use transform="matrix(0.05,0,0,0.05,108.84999999999998,0)" xlink:href="#z"/><use transform="matrix(0.05,0,0,0.05,113.84999999999998,0)" xlink:href="#I"/><use transform="matrix(0.05,0,0,0.05,119.80000000000001,0)" xlink:href="#J"/><use transform="matrix(0.05,0,0,0.05,129.8,0)" xlink:href="#K"/></g><path d="M118-107v75H92v-75H18v-26h74v-75h26v75h74v26h-74" id="L"/><path d="M135-143c-3-34-86-38-87 0 15 53 115 12 119 90S17 21 10-45l28-5c4 36 97 45 98 0-10-56-113-15-118-90-4-57 82-63 122-42 12 7 21 19 24 35" id="M"/><path d="M117-194c89-4 53 116 60 194h-32v-121c0-31-8-49-39-48C34-167 62-67 57 0H25l-1-190h30c1 10-1 24 2 32 11-22 29-35 61-36" id="N"/><path d="M85-194c31 0 48 13 60 33l-1-100h32l1 261h-30c-2-10 0-23-3-31C134-8 116 4 85 4 32 4 16-35 15-94c0-66 23-100 70-100zm9 24c-40 0-46 34-46 75 0 40 6 74 45 74 42 0 51-32 51-76 0-42-9-74-50-73" id="O"/><path d="M127-220V0H93v-220H8v-28h204v28h-85" id="P"/><path d="M205 0l-28-72H64L36 0H1l101-248h38L239 0h-34zm-38-99l-47-123c-12 45-31 82-46 123h93" id="Q"/><path d="M24 0v-261h32V0H24" id="R"/><path d="M240 0l2-218c-23 76-54 145-80 218h-23L58-218 59 0H30v-248h44l77 211c21-75 51-140 76-211h43V0h-30" id="S"/><path d="M177-190C167-65 218 103 67 71c-23-6-38-20-44-43l32-5c15 47 100 32 89-28v-30C133-14 115 1 83 1 29 1 15-40 15-95c0-56 16-97 71-98 29-1 48 16 59 35 1-10 0-23 2-32h30zM94-22c36 0 50-32 50-73 0-42-14-75-50-75-39 0-46 34-46 75s6 73 46 73" id="T"/><g id="c"><use transform="matrix(0.05,0,0,0.05,0,0)" xlink:href="#L"/><use transform="matrix(0.05,0,0,0.05,10.5,0)" xlink:href="#M"/><use transform="matrix(0.05,0,0,0.05,19.5,0)" xlink:href="#B"/><use transform="matrix(0.05,0,0,0.05,29.5,0)" xlink:href="#N"/><use transform="matrix(0.05,0,0,0.05,39.5,0)" xlink:href="#O"/><use transform="matrix(0.05,0,0,0.05,49.5,0)" xlink:href="#P"/><use transform="matrix(0.05,0,0,0.05,58.45,0)" xlink:href="#F"/><use transform="matrix(0.05,0,0,0.05,68.45,0)" xlink:href="#Q"/><use transform="matrix(0.05,0,0,0.05,80.45,0)" xlink:href="#R"/><use transform="matrix(0.05,0,0,0.05,84.4,0)" xlink:href="#R"/><use transform="matrix(0.05,0,0,0.05,88.35000000000001,0)" xlink:href="#I"/><use transform="matrix(0.05,0,0,0.05,94.30000000000001,0)" xlink:href="#S"/><use transform="matrix(0.05,0,0,0.05,109.25,0)" xlink:href="#B"/><use transform="matrix(0.05,0,0,0.05,119.25,0)" xlink:href="#M"/><use transform="matrix(0.05,0,0,0.05,128.25,0)" xlink:href="#M"/><use transform="matrix(0.05,0,0,0.05,137.25,0)" xlink:href="#y"/><use transform="matrix(0.05,0,0,0.05,147.25,0)" xlink:href="#T"/><use transform="matrix(0.05,0,0,0.05,157.25,0)" xlink:href="#B"/></g><path d="M210-169c-67 3-38 105-44 169h-31v-121c0-29-5-50-35-48C34-165 62-65 56 0H25l-1-190h30c1 10-1 24 2 32 10-44 99-50 107 0 11-21 27-35 58-36 85-2 47 119 55 194h-31v-121c0-29-5-49-35-48" id="U"/><g id="d"><use transform="matrix(0.05,0,0,0.05,0,0)" xlink:href="#U"/><use transform="matrix(0.05,0,0,0.05,14.950000000000001,0)" xlink:href="#B"/><use transform="matrix(0.05,0,0,0.05,24.950000000000003,0)" xlink:href="#M"/><use transform="matrix(0.05,0,0,0.05,33.95,0)" xlink:href="#M"/><use transform="matrix(0.05,0,0,0.05,42.95,0)" xlink:href="#y"/><use transform="matrix(0.05,0,0,0.05,52.95,0)" xlink:href="#T"/><use transform="matrix(0.05,0,0,0.05,62.95,0)" xlink:href="#B"/><use transform="matrix(0.05,0,0,0.05,72.95,0)" xlink:href="#K"/></g><path d="M232-93c-1 65-40 97-104 97C67 4 28-28 28-90v-158h33c8 89-33 224 67 224 102 0 64-133 71-224h33v155" id="V"/><g id="e"><use transform="matrix(0.05,0,0,0.05,0,0)" xlink:href="#L"/><use transform="matrix(0.05,0,0,0.05,10.5,0)" xlink:href="#M"/><use transform="matrix(0.05,0,0,0.05,19.5,0)" xlink:href="#B"/><use transform="matrix(0.05,0,0,0.05,29.5,0)" xlink:href="#N"/><use transform="matrix(0.05,0,0,0.05,39.5,0)" xlink:href="#O"/><use transform="matrix(0.05,0,0,0.05,49.5,0)" xlink:href="#P"/><use transform="matrix(0.05,0,0,0.05,58.45,0)" xlink:href="#F"/><use transform="matrix(0.05,0,0,0.05,68.45,0)" xlink:href="#I"/><use transform="matrix(0.05,0,0,0.05,74.4,0)" xlink:href="#V"/><use transform="matrix(0.05,0,0,0.05,87.35000000000001,0)" xlink:href="#M"/><use transform="matrix(0.05,0,0,0.05,96.35000000000001,0)" xlink:href="#B"/><use transform="matrix(0.05,0,0,0.05,106.35000000000001,0)" xlink:href="#C"/></g><path d="M84 4C-5 8 30-112 23-190h32v120c0 31 7 50 39 49 72-2 45-101 50-169h31l1 190h-30c-1-10 1-25-2-33-11 22-28 36-60 37" id="W"/><path d="M68-38c1 34 0 65-14 84H32c9-13 17-26 17-46H33v-38h35" id="X"/><g id="f"><use transform="matrix(0.05,0,0,0.05,0,0)" xlink:href="#W"/><use transform="matrix(0.05,0,0,0.05,10,0)" xlink:href="#M"/><use transform="matrix(0.05,0,0,0.05,19,0)" xlink:href="#B"/><use transform="matrix(0.05,0,0,0.05,29,0)" xlink:href="#C"/><use transform="matrix(0.05,0,0,0.05,33.95,0)" xlink:href="#X"/></g><g id="g"><use transform="matrix(0.05,0,0,0.05,0,0)" xlink:href="#S"/><use transform="matrix(0.05,0,0,0.05,14.950000000000001,0)" xlink:href="#B"/><use transform="matrix(0.05,0,0,0.05,24.950000000000003,0)" xlink:href="#M"/><use transform="matrix(0.05,0,0,0.05,33.95,0)" xlink:href="#M"/><use transform="matrix(0.05,0,0,0.05,42.95,0)" xlink:href="#y"/><use transform="matrix(0.05,0,0,0.05,52.95,0)" xlink:href="#T"/><use transform="matrix(0.05,0,0,0.05,62.95,0)" xlink:href="#B"/></g><path d="M143 4C61 4 22-44 18-125c-5-107 100-154 193-111 17 8 29 25 37 43l-32 9c-13-25-37-40-76-40-61 0-88 39-88 99 0 61 29 100 91 101 35 0 62-11 79-27v-45h-74v-28h105v86C228-13 192 4 143 4" id="Y"/><path d="M115-194c55 1 70 41 70 98S169 2 115 4C84 4 66-9 55-30l1 105H24l-1-265h31l2 30c10-21 28-34 59-34zm-8 174c40 0 45-34 45-75s-6-73-45-74c-42 0-51 32-51 76 0 43 10 73 51 73" id="Z"/><g id="h"><use transform="matrix(0.05,0,0,0.05,0,0)" xlink:href="#L"/><use transform="matrix(0.05,0,0,0.05,10.5,0)" xlink:href="#M"/><use transform="matrix(0.05,0,0,0.05,19.5,0)" xlink:href="#B"/><use transform="matrix(0.05,0,0,0.05,29.5,0)" xlink:href="#N"/><use transform="matrix(0.05,0,0,0.05,39.5,0)" xlink:href="#O"/><use transform="matrix(0.05,0,0,0.05,49.5,0)" xlink:href="#P"/><use transform="matrix(0.05,0,0,0.05,58.45,0)" xlink:href="#F"/><use transform="matrix(0.05,0,0,0.05,68.45,0)" xlink:href="#Y"/><use transform="matrix(0.05,0,0,0.05,82.45,0)" xlink:href="#C"/><use transform="matrix(0.05,0,0,0.05,88.4,0)" xlink:href="#F"/><use transform="matrix(0.05,0,0,0.05,98.4,0)" xlink:href="#W"/><use transform="matrix(0.05,0,0,0.05,108.4,0)" xlink:href="#Z"/><use transform="matrix(0.05,0,0,0.05,118.4,0)" xlink:href="#I"/><use transform="matrix(0.05,0,0,0.05,124.35000000000001,0)" xlink:href="#Y"/><use transform="matrix(0.05,0,0,0.05,138.35000000000002,0)" xlink:href="#C"/><use transform="matrix(0.05,0,0,0.05,144.3,0)" xlink:href="#F"/><use transform="matrix(0.05,0,0,0.05,154.3,0)" xlink:href="#W"/><use transform="matrix(0.05,0,0,0.05,164.3,0)" xlink:href="#Z"/></g><g id="i"><use transform="matrix(0.05,0,0,0.05,0,0)" xlink:href="#T"/><use transform="matrix(0.05,0,0,0.05,10,0)" xlink:href="#C"/><use transform="matrix(0.05,0,0,0.05,15.949999999999998,0)" xlink:href="#F"/><use transform="matrix(0.05,0,0,0.05,25.950000000000003,0)" xlink:href="#W"/><use transform="matrix(0.05,0,0,0.05,35.95,0)" xlink:href="#Z"/><use transform="matrix(0.05,0,0,0.05,45.95,0)" xlink:href="#X"/></g><g id="j"><use transform="matrix(0.05,0,0,0.05,0,0)" xlink:href="#U"/><use transform="matrix(0.05,0,0,0.05,14.950000000000001,0)" xlink:href="#B"/><use transform="matrix(0.05,0,0,0.05,24.950000000000003,0)" xlink:href="#M"/><use transform="matrix(0.05,0,0,0.05,33.95,0)" xlink:href="#M"/><use transform="matrix(0.05,0,0,0.05,42.95,0)" xlink:href="#y"/><use transform="matrix(0.05,0,0,0.05,52.95,0)" xlink:href="#T"/><use transform="matrix(0.05,0,0,0.05,62.95,0)" xlink:href="#B"/><use transform="matrix(0.05,0,0,0.05,72.95,0)" xlink:href="#K"/></g><path d="M115-194c53 0 69 39 70 98 0 66-23 100-70 100C84 3 66-7 56-30L54 0H23l1-261h32v101c10-23 28-34 59-34zm-8 174c40 0 45-34 45-75 0-40-5-75-45-74-42 0-51 32-51 76 0 43 10 73 51 73" id="aa"/><g id="k"><use transform="matrix(0.05,0,0,0.05,0,0)" xlink:href="#y"/><use transform="matrix(0.05,0,0,0.05,10,0)" xlink:href="#aa"/><use transform="matrix(0.05,0,0,0.05,20,0)" xlink:href="#M"/><use transform="matrix(0.05,0,0,0.05,29,0)" xlink:href="#z"/><use transform="matrix(0.05,0,0,0.05,34,0)" xlink:href="#C"/><use transform="matrix(0.05,0,0,0.05,39.95,0)" xlink:href="#y"/><use transform="matrix(0.05,0,0,0.05,49.95,0)" xlink:href="#G"/><use transform="matrix(0.05,0,0,0.05,58.95,0)" xlink:href="#z"/></g><path d="M197 0v-115H63V0H30v-248h33v105h134v-105h34V0h-34" id="ab"/><g id="l"><use transform="matrix(0.05,0,0,0.05,0,0)" xlink:href="#ab"/><use transform="matrix(0.05,0,0,0.05,12.950000000000001,0)" xlink:href="#z"/><use transform="matrix(0.05,0,0,0.05,17.950000000000003,0)" xlink:href="#z"/><use transform="matrix(0.05,0,0,0.05,22.950000000000003,0)" xlink:href="#Z"/><use transform="matrix(0.05,0,0,0.05,32.95,0)" xlink:href="#A"/><use transform="matrix(0.05,0,0,0.05,44.95,0)" xlink:href="#B"/><use transform="matrix(0.05,0,0,0.05,54.95,0)" xlink:href="#C"/><use transform="matrix(0.05,0,0,0.05,60.900000000000006,0)" xlink:href="#D"/><use transform="matrix(0.05,0,0,0.05,69.9,0)" xlink:href="#B"/><use transform="matrix(0.05,0,0,0.05,79.9,0)" xlink:href="#C"/></g><path d="M24-231v-30h32v30H24zM24 0v-190h32V0H24" id="ac"/><g id="m"><use transform="matrix(0.05,0,0,0.05,0,0)" xlink:href="#ac"/><use transform="matrix(0.05,0,0,0.05,3.95,0)" xlink:href="#U"/><use transform="matrix(0.05,0,0,0.05,18.900000000000002,0)" xlink:href="#Z"/><use transform="matrix(0.05,0,0,0.05,28.900000000000002,0)" xlink:href="#R"/><use transform="matrix(0.05,0,0,0.05,32.85,0)" xlink:href="#B"/><use transform="matrix(0.05,0,0,0.05,42.85,0)" xlink:href="#U"/><use transform="matrix(0.05,0,0,0.05,57.800000000000004,0)" xlink:href="#B"/><use transform="matrix(0.05,0,0,0.05,67.80000000000001,0)" xlink:href="#N"/><use transform="matrix(0.05,0,0,0.05,77.80000000000001,0)" xlink:href="#z"/><use transform="matrix(0.05,0,0,0.05,82.80000000000001,0)" xlink:href="#M"/></g><path d="M233-177c-1 41-23 64-60 70L243 0h-38l-65-103H63V0H30v-248c88 3 205-21 203 71zM63-129c60-2 137 13 137-47 0-61-80-42-137-45v92" id="ad"/><path d="M145-31C134-9 116 4 85 4 32 4 16-35 15-94c0-59 17-99 70-100 32-1 48 14 60 33 0-11-1-24 2-32h30l-1 268h-32zM93-21c41 0 51-33 51-76s-8-73-50-73c-40 0-46 35-46 75s5 74 45 74" id="ae"/><g id="n"><use transform="matrix(0.05,0,0,0.05,0,0)" xlink:href="#ab"/><use transform="matrix(0.05,0,0,0.05,12.950000000000001,0)" xlink:href="#z"/><use transform="matrix(0.05,0,0,0.05,17.950000000000003,0)" xlink:href="#z"/><use transform="matrix(0.05,0,0,0.05,22.950000000000003,0)" xlink:href="#Z"/><use transform="matrix(0.05,0,0,0.05,32.95,0)" xlink:href="#ad"/><use transform="matrix(0.05,0,0,0.05,45.900000000000006,0)" xlink:href="#B"/><use transform="matrix(0.05,0,0,0.05,55.900000000000006,0)" xlink:href="#ae"/><use transform="matrix(0.05,0,0,0.05,65.9,0)" xlink:href="#W"/><use transform="matrix(0.05,0,0,0.05,75.9,0)" xlink:href="#B"/><use transform="matrix(0.05,0,0,0.05,85.9,0)" xlink:href="#M"/><use transform="matrix(0.05,0,0,0.05,94.9,0)" xlink:href="#z"/></g><g id="o"><use transform="matrix(0.05,0,0,0.05,0,0)" xlink:href="#ab"/><use transform="matrix(0.05,0,0,0.05,12.950000000000001,0)" xlink:href="#z"/><use transform="matrix(0.05,0,0,0.05,17.950000000000003,0)" xlink:href="#z"/><use transform="matrix(0.05,0,0,0.05,22.950000000000003,0)" xlink:href="#Z"/><use transform="matrix(0.05,0,0,0.05,32.95,0)" xlink:href="#ad"/><use transform="matrix(0.05,0,0,0.05,45.900000000000006,0)" xlink:href="#B"/><use transform="matrix(0.05,0,0,0.05,55.900000000000006,0)" xlink:href="#M"/><use transform="matrix(0.05,0,0,0.05,64.9,0)" xlink:href="#Z"/><use transform="matrix(0.05,0,0,0.05,74.9,0)" xlink:href="#F"/><use transform="matrix(0.05,0,0,0.05,84.9,0)" xlink:href="#N"/><use transform="matrix(0.05,0,0,0.05,94.9,0)" xlink:href="#M"/><use transform="matrix(0.05,0,0,0.05,103.9,0)" xlink:href="#B"/></g><g id="p"><use transform="matrix(0.05,0,0,0.05,0,0)" xlink:href="#W"/><use transform="matrix(0.05,0,0,0.05,10,0)" xlink:href="#M"/><use transform="matrix(0.05,0,0,0.05,19,0)" xlink:href="#B"/><use transform="matrix(0.05,0,0,0.05,29,0)" xlink:href="#M"/></g><path d="M109-170H84l-4-78h32zm-65 0H19l-4-78h33" id="af"/><path d="M30 0v-248h33v221h125V0H30" id="ag"/><path d="M153-248C145-148 188 4 80 4 36 3 13-21 6-62l32-5c4 25 16 42 43 43 27 0 39-20 39-49v-147H72v-28h81" id="ah"/><g id="q"><use transform="matrix(0.05,0,0,0.05,0,0)" xlink:href="#af"/><use transform="matrix(0.05,0,0,0.05,6.3500000000000005,0)" xlink:href="#w"/><use transform="matrix(0.05,0,0,0.05,19.3,0)" xlink:href="#x"/><use transform="matrix(0.05,0,0,0.05,29.3,0)" xlink:href="#y"/><use transform="matrix(0.05,0,0,0.05,39.3,0)" xlink:href="#z"/><use transform="matrix(0.05,0,0,0.05,44.3,0)" xlink:href="#w"/><use transform="matrix(0.05,0,0,0.05,57.25,0)" xlink:href="#R"/><use transform="matrix(0.05,0,0,0.05,61.2,0)" xlink:href="#ac"/><use transform="matrix(0.05,0,0,0.05,65.15,0)" xlink:href="#B"/><use transform="matrix(0.05,0,0,0.05,75.15,0)" xlink:href="#N"/><use transform="matrix(0.05,0,0,0.05,85.15,0)" xlink:href="#z"/><use transform="matrix(0.05,0,0,0.05,90.15,0)" xlink:href="#af"/><use transform="matrix(0.05,0,0,0.05,96.5,0)" xlink:href="#I"/><use transform="matrix(0.05,0,0,0.05,102.45,0)" xlink:href="#ab"/><use transform="matrix(0.05,0,0,0.05,115.4,0)" xlink:href="#P"/><use transform="matrix(0.05,0,0,0.05,126.35000000000001,0)" xlink:href="#S"/><use transform="matrix(0.05,0,0,0.05,141.3,0)" xlink:href="#ag"/><use transform="matrix(0.05,0,0,0.05,151.3,0)" xlink:href="#L"/><use transform="matrix(0.05,0,0,0.05,161.8,0)" xlink:href="#ah"/><use transform="matrix(0.05,0,0,0.05,170.8,0)" xlink:href="#A"/></g><g id="r"><use transform="matrix(0.05,0,0,0.05,0,0)" xlink:href="#ac"/><use transform="matrix(0.05,0,0,0.05,3.95,0)" xlink:href="#N"/></g><path d="M160-131c35 5 61 23 61 61C221 17 115-2 30 0v-248c76 3 177-17 177 60 0 33-19 50-47 57zm-97-11c50-1 110 9 110-42 0-47-63-36-110-37v79zm0 115c55-2 124 14 124-45 0-56-70-42-124-44v89" id="ai"/><path d="M206 0h-36l-40-164L89 0H53L-1-190h32L70-26l43-164h34l41 164 42-164h31" id="aj"/><g id="s"><use transform="matrix(0.05,0,0,0.05,0,0)" xlink:href="#ai"/><use transform="matrix(0.05,0,0,0.05,12,0)" xlink:href="#C"/><use transform="matrix(0.05,0,0,0.05,17.95,0)" xlink:href="#F"/><use transform="matrix(0.05,0,0,0.05,27.950000000000003,0)" xlink:href="#aj"/><use transform="matrix(0.05,0,0,0.05,40.9,0)" xlink:href="#M"/><use transform="matrix(0.05,0,0,0.05,49.9,0)" xlink:href="#B"/><use transform="matrix(0.05,0,0,0.05,59.900000000000006,0)" xlink:href="#C"/><use transform="matrix(0.05,0,0,0.05,65.85,0)" xlink:href="#K"/></g><path d="M33 0v-248h34V0H33" id="ak"/><g id="t"><use transform="matrix(0.05,0,0,0.05,0,0)" xlink:href="#Y"/><use transform="matrix(0.05,0,0,0.05,14,0)" xlink:href="#V"/><use transform="matrix(0.05,0,0,0.05,26.950000000000003,0)" xlink:href="#ak"/></g><path d="M30-248c118-7 216 8 213 122C240-48 200 0 122 0H30v-248zM63-27c89 8 146-16 146-99s-60-101-146-95v194" id="al"/><g id="u"><use transform="matrix(0.05,0,0,0.05,0,0)" xlink:href="#al"/><use transform="matrix(0.05,0,0,0.05,12.950000000000001,0)" xlink:href="#y"/><use transform="matrix(0.05,0,0,0.05,22.950000000000003,0)" xlink:href="#z"/><use transform="matrix(0.05,0,0,0.05,27.950000000000003,0)" xlink:href="#y"/><use transform="matrix(0.05,0,0,0.05,37.95,0)" xlink:href="#aa"/><use transform="matrix(0.05,0,0,0.05,47.95,0)" xlink:href="#y"/><use transform="matrix(0.05,0,0,0.05,57.95,0)" xlink:href="#M"/><use transform="matrix(0.05,0,0,0.05,66.95,0)" xlink:href="#B"/></g><path d="M134-131c28 9 52 24 51 62-1 50-34 73-85 73S17-19 16-69c0-36 21-54 49-61-75-25-45-126 34-121 46 3 78 18 79 63 0 33-17 51-44 57zm-34-11c31 1 46-15 46-44 0-28-17-43-47-42-29 0-46 13-45 42 1 28 16 44 46 44zm1 122c35 0 51-18 51-52 0-30-18-46-53-46-33 0-51 17-51 47 0 34 19 51 53 51" id="am"/><path d="M18-150v-26h174v26H18zm0 90v-26h174v26H18" id="an"/><path d="M18-27v-27l151-64-151-65v-27l175 74v36" id="ao"/><g id="v"><use transform="matrix(0.05,0,0,0.05,0,0)" xlink:href="#am"/><use transform="matrix(0.05,0,0,0.05,10,0)" xlink:href="#an"/><use transform="matrix(0.05,0,0,0.05,20.5,0)" xlink:href="#an"/><use transform="matrix(0.05,0,0,0.05,31,0)" xlink:href="#an"/><use transform="matrix(0.05,0,0,0.05,41.5,0)" xlink:href="#ao"/></g></defs></g></svg>